# xmcd
# Track frame offsets:
# 150
# 19425
# 34812
# 51612
# 68825
# 84412
# 99375
# 115850
# 132500
# 153375
# 165225
# 185000
#
# Disc length: 2729 seconds
# Revision: 0
# Processed by: cddbd v1.4PL0 Copyright (c) Steve Scherf et al.
# Submitted via: VisiTrax 2.9.5.180 - For more info visit www.synapsa.com
#
DISCID=a10aa70c
DTITLE=Jimmy Dobro´s Horsepower - Country Specials II
DYEAR=1900
DGENRE=
TTITLE0=Train Tracks
TTITLE1=10.000 Miles
TTITLE2=Home
TTITLE3=Rattle Snake
TTITLE4=Till I Held Her
TTITLE5=Down By The River
TTITLE6=Adventure And Promise
TTITLE7=You´re The Reason
TTITLE8=Teenage Queen
TTITLE9=Trucker On The Highway
TTITLE10=Down The Line
TTITLE11=One More Bourbon
EXTD=
EXTT0=
EXTT1=
EXTT2=
EXTT3=
EXTT4=
EXTT5=
EXTT6=
EXTT7=
EXTT8=
EXTT9=
EXTT10=
EXTT11=
PLAYORDER=
